<svg xmlns="http://www.w3.org/2000/svg" fill="none" viewBox="0 0 96 96" id="Google-Search-Console--Streamline-Svg-Logos" height="24" width="24">
  <desc>
    Google Search Console Streamline Icon: https://streamlinehq.com
  </desc>
  <path fill="#737373" d="M61.9453 6.21149H34.0541l-6.9486 6.99691v6.9487h6.9486v-6.9487h27.8912v6.9487h6.9487v-6.9487l-6.9487-6.99691Z"></path>
  <path fill="#bfbfbf" d="M34.0547 6.21149v6.99691h27.8912V6.21149H34.0547Z"></path>
  <path fill="url(#a)" d="M14.3665 20.1571 1 33.5236v49.268c0 3.8604 3.13655 6.9487 6.94867 6.9487H88.0513c3.8604 0 6.9487-3.1366 6.9487-6.9487V33.5719L81.5852 20.1571H14.3665Z"></path>
  <path fill="#ffffff" d="M11.4712 46.2628h73.1057v43.5257H11.4712V46.2628Z"></path>
  <path fill="#e0e0e0" d="M14.3665 20.1571 1 33.5236v12.7393h94v-12.691L81.5852 20.1571H14.3665Z"></path>
  <path fill="#d1d1d1" d="M16.6826 84.5287h31.3173v5.2115H16.6826v-5.2115Z"></path>
  <path fill="#4285f4" d="M11.4712 38.156c0-2.9918 2.4127-5.4045 5.4045-5.4045h62.2485c2.9918 0 5.4045 2.4127 5.4045 5.4045v8.1068H11.4712V38.156Z"></path>
  <path fill="#e6e6e6" d="M21.8941 39.3142c0 1.4476-1.1581 2.6057-2.6057 2.6057-1.4477 0-2.6058-1.1581-2.6058-2.6057 0-1.4477 1.1581-2.6058 2.6058-2.6058 1.4476 0 2.6057 1.1581 2.6057 2.6058Zm8.6858 0c0 1.4476-1.1581 2.6057-2.6057 2.6057-1.4476 0-2.6058-1.1581-2.6058-2.6057 0-1.4477 1.1582-2.6058 2.6058-2.6058s2.6057 1.1581 2.6057 2.6058Z"></path>
  <path fill="#bababa" d="M84.5285 66.8676 73.5747 55.9138l-3.6673 11.3398-14.9589-14.9107-.4343 23.0175 5.5492 8.6858c.8204-.1448-4.1499 5.6941-4.1499 5.6941h28.615V66.8676Z"></path>
  <path fill="#4d4d4d" d="M77.677 66.4333c0-6.1766-3.6191-11.4846-8.7823-14.0421v14.6694l-6.9004 3.7156-6.9969-3.7156V52.3429c-5.1633 2.5575-8.6859 7.9138-8.6859 14.0421 0 6.1766 3.5709 11.4846 8.7341 14.0421v9.3132h13.8973v-9.3132c5.115-2.5092 8.7341-7.8655 8.7341-13.9938Z"></path>
  <path fill="#d1d1d1" d="M16.6826 51.4743h24.3686v27.8429H16.6826V51.4743Z"></path>
  <defs>
    <radialGradient id="a" cx="0" cy="0" r="1" gradientTransform="matrix(4635.15624 4633.79734 -3586.7823 3587.83415 326.827 2834.24)" gradientUnits="userSpaceOnUse">
      <stop stop-color="#f1f2f2"></stop>
      <stop offset="1" stop-color="#e6e7e8"></stop>
    </radialGradient>
  </defs>
</svg>